<?xml version="1.0" encoding="UTF-8"?>
<svg xmlns="http://www.w3.org/2000/svg" width="140" height="44" viewBox="0 0 140 44" fill="none">
  <path d="M55.2704 12.5401C55.4776 12.7502 55.6395 13.0007 55.7461 13.2758C55.8527 13.551 55.9018 13.8452 55.8904 14.1401V30.2001C55.8818 30.6375 55.7464 31.0631 55.5007 31.4251C55.2549 31.7872 54.9093 32.07 54.5059 32.2395C54.1024 32.4089 53.6585 32.4575 53.228 32.3795C52.7974 32.3015 52.3988 32.1002 52.0804 31.8001C51.8712 31.5913 51.708 31.3411 51.6013 31.0656C51.4945 30.79 51.4465 30.4952 51.4604 30.2001V14.1401C51.4465 13.8449 51.4945 13.5501 51.6013 13.2745C51.708 12.999 51.8712 12.7488 52.0804 12.5401C52.5157 12.1409 53.0848 11.9195 53.6754 11.9195C54.266 11.9195 54.8351 12.1409 55.2704 12.5401ZM130.73 12.5401C130.933 12.7463 131.091 12.9922 131.194 13.2624C131.298 13.5326 131.344 13.8211 131.33 14.1101V35.0001C131.335 35.7667 131.278 36.5325 131.16 37.2901C131.056 38.0152 130.851 38.7221 130.55 39.3901C130.267 40.0578 129.864 40.6679 129.36 41.1901C128.809 41.741 128.17 42.1972 127.47 42.5401C126.438 42.8768 125.365 43.0719 124.28 43.1201C123.773 43.2191 123.25 43.2135 122.744 43.1034C122.239 42.9934 121.761 42.7813 121.34 42.4801C121.157 42.2872 121.014 42.0595 120.919 41.8105C120.825 41.5615 120.781 41.2962 120.79 41.0301C120.774 40.578 120.912 40.1339 121.18 39.7701C121.429 39.4403 121.781 39.2042 122.18 39.1001C122.546 39.0596 122.915 39.0596 123.28 39.1001H124.1L124.88 38.9701C125.25 38.8519 125.59 38.6577 125.88 38.4001C126.306 37.97 126.604 37.4298 126.74 36.8401C126.892 36.2376 126.979 35.6209 127 35.0001V14.0901C127.012 13.661 127.147 13.2444 127.39 12.8903C127.633 12.5363 127.972 12.2598 128.368 12.094C128.764 11.9282 129.2 11.8803 129.622 11.9558C130.045 12.0314 130.436 12.2273 130.75 12.5201L130.73 12.5401ZM139.28 12.5401C139.488 12.7502 139.649 13.0007 139.756 13.2758C139.863 13.551 139.912 13.8452 139.9 14.1401V30.2001C139.921 30.5034 139.879 30.8078 139.777 31.0942C139.674 31.3807 139.515 31.6431 139.307 31.8652C139.099 32.0873 138.848 32.2644 138.569 32.3854C138.29 32.5065 137.989 32.569 137.685 32.569C137.381 32.569 137.08 32.5065 136.802 32.3854C136.523 32.2644 136.271 32.0873 136.064 31.8652C135.856 31.6431 135.696 31.3807 135.594 31.0942C135.492 30.8078 135.45 30.5034 135.47 30.2001V14.1401C135.458 13.8459 135.505 13.5522 135.61 13.277C135.715 13.0019 135.875 12.7511 136.08 12.5401C136.517 12.1402 137.088 11.9185 137.68 11.9185C138.273 11.9185 138.843 12.1402 139.28 12.5401ZM98.3804 29.4001C98.5967 29.7186 98.7118 30.095 98.7104 30.4801C98.7117 30.7343 98.6628 30.9864 98.5664 31.2217C98.47 31.457 98.328 31.671 98.1487 31.8512C97.9693 32.0315 97.7561 32.1746 97.5213 32.2722C97.2865 32.3698 97.0347 32.4201 96.7804 32.4201H95.2904C95.0104 32.4201 94.7504 32.4201 94.4804 32.3601C93.7129 32.3231 92.9517 32.2024 92.2104 32.0001C92.0704 31.9639 91.9333 31.9171 91.8004 31.8601C90.8795 31.5609 90.029 31.0778 89.3004 30.4401C87.7671 29.1067 87.0037 27.0701 87.0104 24.3301V15.9301H85.4504C85.2426 15.9401 85.0349 15.9071 84.8405 15.8331C84.646 15.7591 84.469 15.6457 84.3204 15.5001C84.175 15.3534 84.0617 15.1781 83.9877 14.9852C83.9137 14.7924 83.8805 14.5863 83.8904 14.3801V13.4701C83.8805 13.2638 83.9137 13.0577 83.9877 12.8649C84.0617 12.6721 84.175 12.4967 84.3204 12.3501C84.469 12.2044 84.646 12.091 84.8405 12.017C85.0349 11.943 85.2426 11.91 85.4504 11.9201H87.0004V8.84005C87.0004 8.25393 87.2332 7.6918 87.6477 7.27735C88.0621 6.86289 88.6243 6.63005 89.2104 6.63005C89.7965 6.63005 90.3586 6.86289 90.7731 7.27735C91.1876 7.6918 91.4204 8.25393 91.4204 8.84005V11.9201H96.0004C96.5308 11.9201 97.0395 12.1308 97.4146 12.5058C97.7897 12.8809 98.0004 13.3896 98.0004 13.9201C98.0004 14.4505 97.7897 14.9592 97.4146 15.3343C97.0395 15.7093 96.5308 15.9201 96.0004 15.9201H91.4004V24.3001C91.3422 25.439 91.7254 26.5566 92.4704 27.4201C92.8144 27.7721 93.225 28.0524 93.6781 28.2447C94.1313 28.4369 94.6181 28.5373 95.1104 28.5401H96.7504C97.0724 28.5352 97.3905 28.6114 97.6753 28.7617C97.9602 28.912 98.2026 29.1315 98.3804 29.4001ZM55.8904 6.00005C55.911 6.30732 55.8603 6.61518 55.7423 6.89964C55.6244 7.18411 55.4423 7.43749 55.2104 7.64005C54.7865 8.01407 54.2407 8.22046 53.6754 8.22046C53.1101 8.22046 52.5643 8.01407 52.1404 7.64005C51.9131 7.4338 51.7342 7.17979 51.6166 6.89625C51.4991 6.61271 51.4457 6.30665 51.4604 6.00005C51.4473 5.69659 51.5015 5.39399 51.619 5.11392C51.7366 4.83386 51.9146 4.58325 52.1404 4.38005C52.5613 3.99989 53.1082 3.78943 53.6754 3.78943C54.2425 3.78943 54.7895 3.99989 55.2104 4.38005C55.4396 4.58051 55.62 4.83064 55.7378 5.11139C55.8556 5.39213 55.9078 5.69608 55.8904 6.00005ZM139.89 6.00005C139.911 6.30732 139.86 6.61518 139.742 6.89964C139.624 7.18411 139.442 7.43749 139.21 7.64005C138.787 8.01407 138.241 8.22046 137.675 8.22046C137.11 8.22046 136.564 8.01407 136.14 7.64005C135.915 7.43287 135.738 7.17845 135.622 6.89495C135.506 6.61145 135.454 6.30588 135.47 6.00005C135.457 5.69659 135.511 5.39399 135.629 5.11392C135.747 4.83386 135.925 4.58325 136.15 4.38005C136.571 3.99989 137.118 3.78943 137.685 3.78943C138.253 3.78943 138.8 3.99989 139.22 4.38005C139.45 4.58051 139.63 4.83064 139.748 5.11139C139.866 5.39213 139.918 5.69608 139.9 6.00005H139.89ZM131.32 6.00005C131.341 6.30732 131.29 6.61518 131.172 6.89964C131.054 7.18411 130.872 7.43749 130.64 7.64005C130.217 8.01407 129.671 8.22046 129.105 8.22046C128.54 8.22046 127.994 8.01407 127.57 7.64005C127.345 7.43287 127.168 7.17845 127.052 6.89495C126.936 6.61145 126.884 6.30588 126.9 6.00005C126.887 5.69659 126.941 5.39399 127.059 5.11392C127.177 4.83386 127.355 4.58325 127.58 4.38005C128.001 3.99989 128.548 3.78943 129.115 3.78943C129.683 3.78943 130.23 3.99989 130.65 4.38005C130.88 4.58051 131.06 4.83064 131.178 5.11139C131.296 5.39213 131.348 5.69608 131.33 6.00005H131.32Z" fill="#131313"></path>
  <path d="M79.9998 17.33C80.4617 18.5181 80.686 19.7854 80.6598 21.06V30.2C80.6739 30.4944 80.6266 30.7886 80.5206 31.0637C80.4147 31.3388 80.2526 31.5888 80.0447 31.7977C79.8367 32.0066 79.5874 32.1698 79.3128 32.277C79.0382 32.3841 78.7442 32.4328 78.4497 32.42C78.1544 32.4343 77.8594 32.3866 77.5836 32.2801C77.3078 32.1736 77.0573 32.0106 76.8482 31.8015C76.6391 31.5924 76.4761 31.342 76.3696 31.0661C76.2631 30.7903 76.2155 30.4953 76.2298 30.2V21.06C75.8964 17.8933 73.9564 16.31 70.4098 16.31C69.6893 16.2998 68.9713 16.3976 68.2798 16.6C67.6205 16.8032 66.9966 17.1068 66.4298 17.5C65.8738 17.9179 65.3906 18.4247 64.9998 19C64.6351 19.635 64.4518 20.3579 64.4698 21.09V30.2C64.4612 30.6374 64.3258 31.063 64.08 31.425C63.8342 31.7871 63.4887 32.07 63.0852 32.2394C62.6818 32.4088 62.2379 32.4575 61.8073 32.3795C61.3768 32.3015 60.9781 32.1002 60.6598 31.8L60.5898 31.72C60.5898 31.72 60.4998 31.62 60.4598 31.56C60.4195 31.5023 60.3827 31.4421 60.3498 31.38C60.2879 31.2899 60.2376 31.1925 60.1998 31.09C60.1467 30.9548 60.1098 30.8138 60.0898 30.67C60.0843 30.6369 60.0843 30.6031 60.0898 30.57C60.0795 30.4469 60.0795 30.3231 60.0898 30.2V14.67C60.0898 14.51 60.0898 13.82 60.0898 13.67C60.1098 13.5261 60.1467 13.3852 60.1998 13.25C60.2376 13.1475 60.2879 13.0501 60.3498 12.96C60.3742 12.8933 60.4116 12.8322 60.4598 12.78C60.4975 12.7223 60.541 12.6687 60.5898 12.62L60.6598 12.54C60.9709 12.2204 61.371 12.002 61.808 11.9132C62.2451 11.8243 62.6987 11.8691 63.1099 12.0418C63.5211 12.2145 63.8707 12.507 64.1133 12.8813C64.3558 13.2555 64.4801 13.6941 64.4698 14.14V14.87C65.3207 13.884 66.4031 13.1246 67.6198 12.66C68.8342 12.1719 70.1309 11.9207 71.4398 11.92C73.8681 11.8696 76.2208 12.7662 77.9998 14.42C78.8599 15.2418 79.5408 16.2325 79.9998 17.33Z" fill="#131313"></path>
  <path d="M102.39 27C101.928 25.8118 101.704 24.5445 101.73 23.27V14.14C101.716 13.8455 101.763 13.5514 101.869 13.2763C101.975 13.0012 102.137 12.7512 102.345 12.5423C102.553 12.3334 102.802 12.1701 103.077 12.063C103.352 11.9558 103.645 11.9071 103.94 11.92C104.235 11.9057 104.53 11.9533 104.806 12.0598C105.082 12.1663 105.332 12.3293 105.542 12.5384C105.751 12.7475 105.914 12.998 106.02 13.2738C106.127 13.5496 106.174 13.8446 106.16 14.14V23.28C106.493 26.4266 108.44 28 112 28C112.72 28.0101 113.438 27.9124 114.13 27.71C114.789 27.5067 115.413 27.2031 115.98 26.81C116.505 26.3946 116.961 25.8984 117.33 25.34C117.695 24.7049 117.878 23.982 117.86 23.25V14.14C117.869 13.7025 118.004 13.2769 118.25 12.9149C118.496 12.5529 118.841 12.27 119.245 12.1005C119.648 11.9311 120.092 11.8825 120.522 11.9605C120.953 12.0385 121.352 12.2398 121.67 12.54L121.74 12.62C121.74 12.67 121.83 12.72 121.87 12.78C121.919 12.85 121.962 12.9235 122 13C122.062 13.09 122.112 13.1875 122.15 13.29C122.203 13.4252 122.24 13.5661 122.26 13.71C122.265 13.7431 122.265 13.7768 122.26 13.81C122.27 13.9331 122.27 14.0568 122.26 14.18V29.67C122.26 29.83 122.26 30.52 122.26 30.67C122.24 30.8138 122.203 30.9548 122.15 31.09C122.112 31.1925 122.062 31.2899 122 31.38C121.976 31.4466 121.938 31.5078 121.89 31.56C121.852 31.6176 121.809 31.6712 121.76 31.72L121.69 31.8C121.379 32.1195 120.979 32.3379 120.542 32.4268C120.105 32.5156 119.651 32.4708 119.24 32.2981C118.829 32.1254 118.479 31.8329 118.236 31.4587C117.994 31.0844 117.87 30.6458 117.88 30.2V29.47C117.029 30.4559 115.947 31.2153 114.73 31.68C113.516 32.168 112.219 32.4192 110.91 32.42C108.482 32.4703 106.129 31.5737 104.35 29.92C103.503 29.0915 102.836 28.0975 102.39 27Z" fill="#131313"></path>
  <path d="M30.2 0H21.9C20.3087 0 18.7826 0.632141 17.6574 1.75736C16.5321 2.88258 15.9 4.4087 15.9 6V13.7C15.9 14.2844 15.6685 14.845 15.2562 15.2592C14.844 15.6734 14.2844 15.9074 13.7 15.91H6C4.4087 15.91 2.88258 16.5421 1.75736 17.6674C0.632141 18.7926 0 20.3187 0 21.91L0 30.21C0 31.8013 0.632141 33.3274 1.75736 34.4526C2.88258 35.5779 4.4087 36.21 6 36.21H14.3C15.8913 36.21 17.4174 35.5779 18.5426 34.4526C19.6679 33.3274 20.3 31.8013 20.3 30.21V22.51C20.3 21.9265 20.5318 21.3669 20.9444 20.9544C21.3569 20.5418 21.9165 20.31 22.5 20.31H30.2C31.7913 20.31 33.3174 19.6779 34.4426 18.5526C35.5679 17.4274 36.2 15.9013 36.2 14.31V6C36.2 4.4087 35.5679 2.88258 34.4426 1.75736C33.3174 0.632141 31.7913 0 30.2 0ZM15.9 29.6C15.9 30.1844 15.6685 30.745 15.2562 31.1592C14.844 31.5734 14.2844 31.8074 13.7 31.81H6.6C6.31025 31.81 6.02335 31.7528 5.75578 31.6416C5.48821 31.5304 5.24524 31.3675 5.04082 31.1621C4.8364 30.9568 4.67456 30.713 4.56459 30.445C4.45462 30.1769 4.39868 29.8897 4.4 29.6V22.51C4.39868 22.2207 4.45468 21.934 4.56477 21.6665C4.67486 21.399 4.83686 21.156 5.04141 20.9514C5.24597 20.7469 5.48902 20.5849 5.75653 20.4748C6.02405 20.3647 6.31072 20.3087 6.6 20.31H13.7C14.2835 20.31 14.8431 20.5418 15.2556 20.9544C15.6682 21.3669 15.9 21.9265 15.9 22.51V29.6ZM31.8 13.7C31.8013 13.9897 31.7454 14.2769 31.6354 14.545C31.5254 14.813 31.3636 15.0568 31.1592 15.2621C30.9548 15.4675 30.7118 15.6304 30.4442 15.7416C30.1766 15.8528 29.8898 15.91 29.6 15.91H22.5C21.9156 15.9074 21.356 15.6734 20.9438 15.2592C20.5315 14.845 20.3 14.2844 20.3 13.7V6.61C20.3 6.0256 20.5315 5.46499 20.9438 5.05082C21.356 4.63665 21.9156 4.40264 22.5 4.4H29.6C29.8898 4.4 30.1766 4.45723 30.4442 4.56842C30.7118 4.6796 30.9548 4.84255 31.1592 5.0479C31.3636 5.25325 31.5254 5.49695 31.6354 5.76503C31.7454 6.0331 31.8013 6.32025 31.8 6.61V13.7Z" fill="#C71D1D"></path>
</svg>
